<svg xmlns="http://www.w3.org/2000/svg" width="180" height="180" viewBox="0 0 180 180" fill="none" role="img" aria-label="SVY">
  <rect width="180" height="180" fill="#f5f9fc"/>
  <g transform="translate(90 90) scale(2.1) translate(-32 -32)">
    <rect x="4" y="4" width="56" height="56" rx="13" fill="#cfe2ee"/>
    <path d="M13 19c6-3.4 12.5-3.2 19 1 6.5-4.2 13-4.4 19-1v27c-6-3.4-12.5-3.2-19 1-6.5-4.2-13-4.4-19-1V19Z" stroke="#1e3a5f" stroke-width="2.6" stroke-linejoin="round"/>
    <path d="M32 21v26" stroke="#1e3a5f" stroke-width="2.6"/>
    <path d="M19 33c3.5 1.4 7.5 1.6 11 .4M34 33.4c3.5-1.2 7.5-1 11 .4" stroke="#1e3a5f" stroke-width="1.6" stroke-linecap="round" opacity="0.6"/>
    <text x="32" y="40" text-anchor="middle" font-family="'Plus Jakarta Sans', 'Segoe UI', sans-serif" font-weight="800" font-size="13" letter-spacing="0.5" fill="#1e3a5f">SVY</text>
  </g>
</svg>
